<?xml version="1.0" encoding="UTF-8"?>
<svg width="24px" height="24px" viewBox="0 0 24 24" version="1.1" xmlns="http://www.w3.org/2000/svg" xmlns:xlink="http://www.w3.org/1999/xlink">
    <title>图标</title>
    <defs>
        <rect id="path-1" x="0" y="0" width="24" height="24"></rect>
        <path d="M5.86647817,1.93534719e-05 L16.1674306,0.0265130128 C19.393199,0.034809567 22.0038095,2.65214314 22.0038095,5.87792223 L22.0038095,12.0984091 C22.0038095,15.3300639 19.3840357,17.9498377 16.152381,17.9498377 L5.85142857,17.9498377 C2.61977381,17.9498377 1.28394199e-15,15.3300639 0,12.0984091 L0,5.85142857 C-3.95763566e-16,2.61977381 2.61977381,-3.30697275e-13 5.85142857,-3.31290551e-13 C5.85644511,-3.31292285e-13 5.86146165,6.45116242e-06 5.86647817,1.93534719e-05 Z" id="path-3"></path>
        <filter x="-9.1%" y="-11.1%" width="118.2%" height="122.3%" filterUnits="objectBoundingBox" id="filter-4">
            <feGaussianBlur stdDeviation="1.5" in="SourceAlpha" result="shadowBlurInner1"></feGaussianBlur>
            <feOffset dx="0" dy="1" in="shadowBlurInner1" result="shadowOffsetInner1"></feOffset>
            <feComposite in="shadowOffsetInner1" in2="SourceAlpha" operator="arithmetic" k2="-1" k3="1" result="shadowInnerInner1"></feComposite>
            <feColorMatrix values="0 0 0 0 1   0 0 0 0 1   0 0 0 0 1  0 0 0 0.695476399 0" type="matrix" in="shadowInnerInner1" result="shadowMatrixInner1"></feColorMatrix>
            <feGaussianBlur stdDeviation="1" in="SourceAlpha" result="shadowBlurInner2"></feGaussianBlur>
            <feOffset dx="0" dy="-2" in="shadowBlurInner2" result="shadowOffsetInner2"></feOffset>
            <feComposite in="shadowOffsetInner2" in2="SourceAlpha" operator="arithmetic" k2="-1" k3="1" result="shadowInnerInner2"></feComposite>
            <feColorMatrix values="0 0 0 0 0   0 0 0 0 0.769565217   0 0 0 0 1  0 0 0 0.497760052 0" type="matrix" in="shadowInnerInner2" result="shadowMatrixInner2"></feColorMatrix>
            <feMerge>
                <feMergeNode in="shadowMatrixInner1"></feMergeNode>
                <feMergeNode in="shadowMatrixInner2"></feMergeNode>
            </feMerge>
        </filter>
        <path d="M6.58285714,3.29094318 L15.36,3.29094318 C16.9758274,3.29094318 18.2857143,4.60083008 18.2857143,6.21665746 L18.2857143,11.7023717 C18.2857143,13.3181991 16.9758274,14.628086 15.36,14.628086 L6.58285714,14.628086 C4.96702976,14.628086 3.65714286,13.3181991 3.65714286,11.7023717 L3.65714286,6.21665746 C3.65714286,4.60083008 4.96702976,3.29094318 6.58285714,3.29094318 Z" id="path-5"></path>
        <filter x="-23.9%" y="-22.1%" width="147.9%" height="161.7%" filterUnits="objectBoundingBox" id="filter-6">
            <feOffset dx="0" dy="1" in="SourceAlpha" result="shadowOffsetOuter1"></feOffset>
            <feGaussianBlur stdDeviation="1" in="shadowOffsetOuter1" result="shadowBlurOuter1"></feGaussianBlur>
            <feColorMatrix values="0 0 0 0 0.211764706   0 0 0 0 0.850980392   0 0 0 0 0.992156863  0 0 0 0.600743007 0" type="matrix" in="shadowBlurOuter1"></feColorMatrix>
        </filter>
        <filter x="-23.9%" y="-22.1%" width="147.9%" height="161.7%" filterUnits="objectBoundingBox" id="filter-7">
            <feGaussianBlur stdDeviation="1" in="SourceAlpha" result="shadowBlurInner1"></feGaussianBlur>
            <feOffset dx="0" dy="-1" in="shadowBlurInner1" result="shadowOffsetInner1"></feOffset>
            <feComposite in="shadowOffsetInner1" in2="SourceAlpha" operator="arithmetic" k2="-1" k3="1" result="shadowInnerInner1"></feComposite>
            <feColorMatrix values="0 0 0 0 0.396078431   0 0 0 0 0.921568627   0 0 0 0 0.992156863  0 0 0 0.4 0" type="matrix" in="shadowInnerInner1"></feColorMatrix>
        </filter>
        <filter x="-198.5%" y="-78.5%" width="497.1%" height="257.0%" filterUnits="objectBoundingBox" id="filter-8">
            <feOffset dx="0" dy="3" in="SourceAlpha" result="shadowOffsetOuter1"></feOffset>
            <feGaussianBlur stdDeviation="2" in="shadowOffsetOuter1" result="shadowBlurOuter1"></feGaussianBlur>
            <feColorMatrix values="0 0 0 0 0.0784313725   0 0 0 0 0.749569364   0 0 0 0 1  0 0 0 0.15 0" type="matrix" in="shadowBlurOuter1" result="shadowMatrixOuter1"></feColorMatrix>
            <feMerge>
                <feMergeNode in="shadowMatrixOuter1"></feMergeNode>
                <feMergeNode in="SourceGraphic"></feMergeNode>
            </feMerge>
        </filter>
        <linearGradient x1="42.1849648%" y1="27.440701%" x2="57.7952973%" y2="76.261059%" id="linearGradient-9">
            <stop stop-color="#FFD657" offset="0%"></stop>
            <stop stop-color="#FFBB39" offset="99.9655423%"></stop>
            <stop stop-color="#FFBB39" offset="100%"></stop>
        </linearGradient>
        <path d="M3.42847627,1.52670291e-13 C5.2814493,1.52329906e-13 6.78358073,1.50213143 6.78358073,3.35510445 C6.78358073,3.36056418 6.7835674,3.36602389 6.78354075,3.37148355 L6.745445,11.1749463 C6.74343245,11.5885357 6.68502184,11.999918 6.57183413,12.397723 C6.35150734,13.1720748 6.0076038,13.9429065 5.5401235,14.7102183 C5.2120079,15.24878 4.85299888,15.7363907 4.46309643,16.1730506 L4.46308146,16.1730372 C3.92538671,16.7752128 3.00133928,16.8274848 2.39916374,16.28979 C2.36168216,16.256322 2.32595127,16.2209434 2.29211338,16.1837954 C1.90675528,15.76074 1.56915685,15.3113449 1.27931808,14.8356099 C0.854315304,14.1380198 0.497746099,13.3275658 0.209610469,12.404248 C0.0704869146,11.9584306 0.000840697382,11.4938489 0.00312062061,11.0268336 L0.0404932943,3.37148355 C0.0495964583,1.5068081 1.5637786,1.53012831e-13 3.42847627,1.52670291e-13 Z" id="path-10"></path>
    </defs>
    <g id="页面-1" stroke="none" stroke-width="1" fill="none" fill-rule="evenodd">
        <g id="答题页面-题1-单选题（选项为文本）" transform="translate(-713.000000, -105.000000)">
            <g id="图标-+-笔-蒙版" transform="translate(713.000000, 105.000000)">
                <mask id="mask-2" fill="white">
                    <use xlink:href="#path-1"></use>
                </mask>
                <g id="蒙版" opacity="0.5"></g>
                <g id="图标" mask="url(#mask-2)">
                    <g transform="translate(1.062857, 3.203648)" id="编组-3">
                        <g id="形状结合">
                            <use fill="#65EBFD" fill-rule="evenodd" xlink:href="#path-3"></use>
                            <use fill="black" fill-opacity="1" filter="url(#filter-4)" xlink:href="#path-3"></use>
                        </g>
                        <g id="矩形">
                            <use fill="black" fill-opacity="1" filter="url(#filter-6)" xlink:href="#path-5"></use>
                            <use fill="#FFFFFF" fill-rule="evenodd" xlink:href="#path-5"></use>
                            <use fill="black" fill-opacity="1" filter="url(#filter-7)" xlink:href="#path-5"></use>
                        </g>
                    </g>
                </g>
                <g id="笔" filter="url(#filter-8)" mask="url(#mask-2)">
                    <g transform="translate(16.600000, 9.400000) rotate(-315.000000) translate(-16.600000, -9.400000) translate(13.200000, 0.800000)">
                        <mask id="mask-11" fill="white">
                            <use xlink:href="#path-10"></use>
                        </mask>
                        <use id="矩形" stroke="none" fill="url(#linearGradient-9)" fill-rule="evenodd" xlink:href="#path-10"></use>
                        <path d="M1.29480095,1.31473445 C1.42072036,1.09718806 1.86108778,1.13186099 2.27838912,1.39217861 C2.69569046,1.65249623 2.93190219,2.03988155 2.80598279,2.25742794 C2.68006339,2.47497433 2.23969596,2.44030139 1.82239462,2.17998378 C1.40509328,1.91966616 1.16888155,1.53228084 1.29480095,1.31473445 Z M0.69159489,1.26712831 C0.886593891,1.26712831 1.04467181,1.43214336 1.04467181,1.63569974 C1.04467181,1.83925612 0.886593891,2.00427116 0.69159489,2.00427116 C0.49659589,2.00427116 0.338517967,1.83925612 0.338517967,1.63569974 C0.338517967,1.43214336 0.49659589,1.26712831 0.69159489,1.26712831 Z" id="形状结合" stroke="none" fill="#FFFFFF" fill-rule="evenodd" opacity="0.300000012" mask="url(#mask-11)" transform="translate(1.589179, 1.786081) rotate(-56.000000) translate(-1.589179, -1.786081) "></path>
                        <ellipse id="椭圆形" stroke="none" fill="#FFE4B1" fill-rule="evenodd" mask="url(#mask-11)" cx="3.32634099" cy="15.9942275" rx="6.75192066" ry="4.74153213"></ellipse>
                        <path d="M3.26483532,2.86548869 C6.58702001,2.86548869 9.28018282,4.75884696 9.28018282,7.09442275 C9.28018282,7.27066034 9.26484825,7.44437999 9.23506595,7.61495822 C8.75984541,5.61270092 6.28403124,4.08629543 3.30110626,4.08629543 C0.229606565,4.08629543 -2.30421897,5.70469669 -2.66912437,7.79469402 C-2.72242684,7.56682662 -2.75051218,7.33293049 -2.75051218,7.09442275 C-2.75051218,4.75884696 -0.0573493658,2.86548869 3.26483532,2.86548869 Z" id="形状结合" stroke="none" fill="#FDBA3A" fill-rule="evenodd" opacity="0.5" mask="url(#mask-11)"></path>
                        <path d="M3.38114481,14.6870651 C2.58148158,14.6870651 1.89879577,15.1298049 1.33308739,16.0152845 L3.38952798,17.0087412 L5.49002264,16.007463 C4.88376732,15.1271977 4.18080805,14.6870651 3.38114481,14.6870651 Z" id="路径-8" stroke="none" fill="#FFC699" fill-rule="evenodd" mask="url(#mask-11)"></path>
                    </g>
                </g>
            </g>
        </g>
    </g>
</svg>