<?xml version="1.0" encoding="UTF-8"?>
<svg width="30px" height="30px" viewBox="0 0 30 30" version="1.1" xmlns="http://www.w3.org/2000/svg" xmlns:xlink="http://www.w3.org/1999/xlink">
    <title>错误</title>
    <g id="页面-1" stroke="none" stroke-width="1" fill="none" fill-rule="evenodd">
        <g id="答题页面-题2-单选题（答错）" transform="translate(-904.000000, -394.000000)">
            <g id="选项" transform="translate(90.000000, 219.000000)">
                <g id="错误" transform="translate(814.000000, 175.000000)">
                    <path d="M14,2.5 C17.7279221,2.5 21.1029221,4.01103897 23.5459415,6.45405845 C25.988961,8.89707794 27.5,12.2720779 27.5,16 L27.5,16 L27.5,27.5 L16,27.5 C12.2720779,27.5 8.89707794,25.988961 6.45405845,23.5459415 C4.01103897,21.1029221 2.5,17.7279221 2.5,14 L2.5,14 L2.5,2.5 Z" id="矩形" stroke="#FF6674" stroke-width="5" fill="#FF6674" transform="translate(15.000000, 15.000000) scale(-1, -1) translate(-15.000000, -15.000000) "></path>
                    <path d="M14.9997301,14.1053183 L10.0798786,9.1854609 C9.83168548,8.94574771 9.43717014,8.94917594 9.19318029,9.19316608 C8.94919045,9.43715622 8.94576222,9.83167204 9.18547512,10.0798654 L14.1046941,14.9997228 L9.18547512,19.9195803 C9.02559234,20.0793502 8.96309072,20.3122803 9.02151403,20.5306281 C9.07993733,20.7489758 9.25040967,20.9195689 9.46871576,20.9781466 C9.68702184,21.0367243 9.91999579,20.9743873 10.0798786,20.8146173 L14.9997301,15.8941274 L19.9195816,20.8146173 C20.0794643,20.9745003 20.3124986,21.0369417 20.5309025,20.9784205 C20.7493065,20.9198993 20.9198994,20.7493062 20.9784205,20.530902 C21.0369417,20.3124977 20.9745003,20.0794632 20.8146175,19.9195803 L15.8941335,14.9997228 L20.8146175,10.0798654 C21.0616002,9.83270777 21.0614586,9.43212763 20.8143013,9.18514465 C20.5671439,8.93816167 20.1665643,8.93830326 19.9195816,9.1854609 L14.9997301,14.1046858 L14.9997301,14.1053183 Z" id="路径" stroke="#FFFFFF" stroke-width="1.71428571" fill="#FFFFFF" fill-rule="nonzero"></path>
                </g>
            </g>
        </g>
    </g>
</svg>