<?xml version="1.0" encoding="UTF-8"?>
<svg width="30px" height="30px" viewBox="0 0 30 30" version="1.1" xmlns="http://www.w3.org/2000/svg" xmlns:xlink="http://www.w3.org/1999/xlink">
    <title>正确</title>
    <g id="页面-1" stroke="none" stroke-width="1" fill="none" fill-rule="evenodd">
        <g id="答题页面-题1-单选题（答对）" transform="translate(-904.000000, -219.000000)">
            <g id="正确" transform="translate(904.000000, 219.000000)">
                <path d="M14,2.5 C17.7279221,2.5 21.1029221,4.01103897 23.5459415,6.45405845 C25.988961,8.89707794 27.5,12.2720779 27.5,16 L27.5,16 L27.5,27.5 L16,27.5 C12.2720779,27.5 8.89707794,25.988961 6.45405845,23.5459415 C4.01103897,21.1029221 2.5,17.7279221 2.5,14 L2.5,14 L2.5,2.5 Z" id="矩形" stroke="#00DACA" stroke-width="5" fill="#00DACA" transform="translate(15.000000, 15.000000) scale(-1, -1) translate(-15.000000, -15.000000) "></path>
                <path d="M21.2839771,9.07683269 C22.026304,8.30076084 23.2222574,8.30880399 23.9552138,9.09479756 C24.6495936,9.83942305 24.6793221,11.0151307 24.0493499,11.7966971 L23.938247,11.9231672 L15.3295837,20.9231658 C14.6523239,21.6312127 13.5919147,21.6898258 12.8512369,21.0857574 L12.7239912,20.9722754 L8.11044048,16.480896 C7.34249793,15.7332894 7.29234246,14.4680736 7.9984151,13.6549576 C8.66732601,12.8846372 9.77498568,12.7964312 10.5426868,13.4249475 L10.6673557,13.5363424 L13.9552841,16.736999 L21.2839771,9.07683269 Z" id="路径-46" fill="#FFFFFF" fill-rule="nonzero"></path>
            </g>
        </g>
    </g>
</svg>