<?xml version="1.0" encoding="UTF-8"?>
<svg width="28px" height="28px" viewBox="0 0 28 28" version="1.1" xmlns="http://www.w3.org/2000/svg" xmlns:xlink="http://www.w3.org/1999/xlink">
    <title>图标</title>
    <defs>
        <rect id="path-1" x="0" y="0" width="28" height="28"></rect>
        <path d="M17.4786827,16.0555037 L19.2756085,19.8187582 C19.5935608,20.4846375 19.3115103,21.2821906 18.645631,21.600143 L18.6236456,21.6103968 L18.6236456,21.6103968 C17.9361913,21.9234531 17.1246633,21.6281446 16.7991771,20.9464874 L15.0022514,17.1832329 C14.684299,16.5173537 14.9663495,15.7198005 15.6322288,15.4018481 C15.6395261,15.3983637 15.6468548,15.3949457 15.6542142,15.3915943 C16.3416685,15.0785381 17.1531965,15.3738466 17.4786827,16.0555037 Z M7.04046397,16.0555037 C7.36595014,15.3738466 8.17747816,15.0785381 8.86493251,15.3915943 C8.87229185,15.3949457 8.87962061,15.3983637 8.88691789,15.4018481 C9.55279718,15.7198005 9.83484769,16.5173537 9.51689533,17.1832329 L9.51689533,17.1832329 L7.71996957,20.9464874 C7.3944834,21.6281446 6.58295538,21.9234531 5.89550103,21.6103968 L5.89550103,21.6103968 L5.87351565,21.600143 C5.20763636,21.2821906 4.92558585,20.4846375 5.24353821,19.8187582 L5.24353821,19.8187582 Z" id="path-3"></path>
        <filter x="-10.5%" y="-23.2%" width="121.0%" height="146.4%" filterUnits="objectBoundingBox" id="filter-4">
            <feGaussianBlur stdDeviation="1" in="SourceAlpha" result="shadowBlurInner1"></feGaussianBlur>
            <feOffset dx="0" dy="-1" in="shadowBlurInner1" result="shadowOffsetInner1"></feOffset>
            <feComposite in="shadowOffsetInner1" in2="SourceAlpha" operator="arithmetic" k2="-1" k3="1" result="shadowInnerInner1"></feComposite>
            <feColorMatrix values="0 0 0 0 0.311891159   0 0 0 0 0.757607547   0 0 0 0 0.837154665  0 0 0 0.599841565 0" type="matrix" in="shadowInnerInner1"></feColorMatrix>
        </filter>
        <path d="M6.28952366,0.000125425714 L18.0092734,0.0301377284 C21.4677253,0.0389942405 24.2666667,2.84511238 24.2666667,6.3035756 L24.2666667,13.4372236 C24.2666667,16.901959 21.4579436,19.710682 17.9932082,19.710682 L6.27345845,19.710682 C2.80872302,19.710682 4.24307715e-16,16.901959 0,13.4372236 L0,6.2735633 C-1.31248613e-15,2.80882787 2.80872302,0.000104855593 6.27345845,0.000104855593 C6.27881352,0.000104855593 6.2841686,0.000111712305 6.28952366,0.000125425714 Z" id="path-5"></path>
        <filter x="-8.2%" y="-10.1%" width="116.5%" height="120.3%" filterUnits="objectBoundingBox" id="filter-6">
            <feGaussianBlur stdDeviation="1.5" in="SourceAlpha" result="shadowBlurInner1"></feGaussianBlur>
            <feOffset dx="0" dy="1" in="shadowBlurInner1" result="shadowOffsetInner1"></feOffset>
            <feComposite in="shadowOffsetInner1" in2="SourceAlpha" operator="arithmetic" k2="-1" k3="1" result="shadowInnerInner1"></feComposite>
            <feColorMatrix values="0 0 0 0 1   0 0 0 0 1   0 0 0 0 1  0 0 0 0.695476399 0" type="matrix" in="shadowInnerInner1" result="shadowMatrixInner1"></feColorMatrix>
            <feGaussianBlur stdDeviation="1" in="SourceAlpha" result="shadowBlurInner2"></feGaussianBlur>
            <feOffset dx="0" dy="-2" in="shadowBlurInner2" result="shadowOffsetInner2"></feOffset>
            <feComposite in="shadowOffsetInner2" in2="SourceAlpha" operator="arithmetic" k2="-1" k3="1" result="shadowInnerInner2"></feComposite>
            <feColorMatrix values="0 0 0 0 0   0 0 0 0 0.769565217   0 0 0 0 1  0 0 0 0.497760052 0" type="matrix" in="shadowInnerInner2" result="shadowMatrixInner2"></feColorMatrix>
            <feMerge>
                <feMergeNode in="shadowMatrixInner1"></feMergeNode>
                <feMergeNode in="shadowMatrixInner2"></feMergeNode>
            </feMerge>
        </filter>
        <path d="M7.04021448,3.41566703 L17.1613941,3.41566703 C18.8937618,3.41566703 20.2981233,4.82002854 20.2981233,6.55239625 L20.2981233,13.0962918 C20.2981233,14.8286595 18.8937618,16.233021 17.1613941,16.233021 L7.04021448,16.233021 C5.30784676,16.233021 3.90348525,14.8286595 3.90348525,13.0962918 L3.90348525,6.55239625 C3.90348525,4.82002854 5.30784676,3.41566703 7.04021448,3.41566703 Z" id="path-7"></path>
        <filter x="-21.3%" y="-19.5%" width="142.7%" height="154.6%" filterUnits="objectBoundingBox" id="filter-8">
            <feOffset dx="0" dy="1" in="SourceAlpha" result="shadowOffsetOuter1"></feOffset>
            <feGaussianBlur stdDeviation="1" in="shadowOffsetOuter1" result="shadowBlurOuter1"></feGaussianBlur>
            <feColorMatrix values="0 0 0 0 0.211764706   0 0 0 0 0.850980392   0 0 0 0 0.992156863  0 0 0 0.600743007 0" type="matrix" in="shadowBlurOuter1"></feColorMatrix>
        </filter>
        <filter x="-21.3%" y="-19.5%" width="142.7%" height="154.6%" filterUnits="objectBoundingBox" id="filter-9">
            <feGaussianBlur stdDeviation="1" in="SourceAlpha" result="shadowBlurInner1"></feGaussianBlur>
            <feOffset dx="0" dy="-1" in="shadowBlurInner1" result="shadowOffsetInner1"></feOffset>
            <feComposite in="shadowOffsetInner1" in2="SourceAlpha" operator="arithmetic" k2="-1" k3="1" result="shadowInnerInner1"></feComposite>
            <feColorMatrix values="0 0 0 0 0.396078431   0 0 0 0 0.921568627   0 0 0 0 0.992156863  0 0 0 0.4 0" type="matrix" in="shadowInnerInner1"></feColorMatrix>
        </filter>
        <linearGradient x1="50%" y1="0%" x2="50%" y2="100%" id="linearGradient-10">
            <stop stop-color="#FFDB5F" offset="0%"></stop>
            <stop stop-color="#FFC143" offset="100%"></stop>
        </linearGradient>
        <path d="M16.1809673,10.931746 C16.8125684,10.931746 17.3245822,11.4437598 17.3245822,12.0753609 C17.3245822,12.7069619 16.8125684,13.2189758 16.1809673,13.2189758 L8.14808986,13.2189758 C7.5164888,13.2189758 7.00447497,12.7069619 7.00447497,12.0753609 C7.00447497,11.4437598 7.5164888,10.931746 8.14808986,10.931746 L16.1809673,10.931746 Z M12.6678306,6.76669747 C13.2994317,6.76669747 13.8114455,7.2787113 13.8114455,7.91031236 C13.8114455,8.54191342 13.2994317,9.05392724 12.6678306,9.05392724 L8.14808986,9.05392724 C7.5164888,9.05392724 7.00447497,8.54191342 7.00447497,7.91031236 C7.00447497,7.2787113 7.5164888,6.76669747 8.14808986,6.76669747 L12.6678306,6.76669747 Z" id="path-11"></path>
        <filter x="-19.4%" y="-15.5%" width="138.8%" height="162.0%" filterUnits="objectBoundingBox" id="filter-12">
            <feOffset dx="0" dy="1" in="SourceAlpha" result="shadowOffsetOuter1"></feOffset>
            <feGaussianBlur stdDeviation="0.5" in="shadowOffsetOuter1" result="shadowBlurOuter1"></feGaussianBlur>
            <feColorMatrix values="0 0 0 0 0.968627451   0 0 0 0 0.709803922   0 0 0 0 0  0 0 0 0.1 0" type="matrix" in="shadowBlurOuter1"></feColorMatrix>
        </filter>
        <filter x="-24.2%" y="-23.2%" width="148.4%" height="177.5%" filterUnits="objectBoundingBox" id="filter-13">
            <feGaussianBlur stdDeviation="1" in="SourceAlpha" result="shadowBlurInner1"></feGaussianBlur>
            <feOffset dx="0" dy="-1" in="shadowBlurInner1" result="shadowOffsetInner1"></feOffset>
            <feComposite in="shadowOffsetInner1" in2="SourceAlpha" operator="arithmetic" k2="-1" k3="1" result="shadowInnerInner1"></feComposite>
            <feColorMatrix values="0 0 0 0 0.980392157   0 0 0 0 0.392156863   0 0 0 0 0  0 0 0 0.2 0" type="matrix" in="shadowInnerInner1"></feColorMatrix>
        </filter>
    </defs>
    <g id="页面-1" stroke="none" stroke-width="1" fill="none" fill-rule="evenodd">
        <g id="答题页面-题1-单选题（答对）" transform="translate(-110.000000, -479.000000)">
            <g id="编组-3" transform="translate(110.000000, 479.000000)">
                <mask id="mask-2" fill="white">
                    <use xlink:href="#path-1"></use>
                </mask>
                <g id="蒙版" opacity="0.5"></g>
                <g mask="url(#mask-2)">
                    <g transform="translate(1.866667, 3.733303)">
                        <g id="形状结合" fill-rule="nonzero">
                            <use fill="#3CAAD0" xlink:href="#path-3"></use>
                            <use fill="black" fill-opacity="1" filter="url(#filter-4)" xlink:href="#path-3"></use>
                        </g>
                        <g id="形状结合">
                            <use fill="#65EBFD" fill-rule="evenodd" xlink:href="#path-5"></use>
                            <use fill="black" fill-opacity="1" filter="url(#filter-6)" xlink:href="#path-5"></use>
                        </g>
                        <g id="矩形">
                            <use fill="black" fill-opacity="1" filter="url(#filter-8)" xlink:href="#path-7"></use>
                            <use fill="#FFFFFF" fill-rule="evenodd" xlink:href="#path-7"></use>
                            <use fill="black" fill-opacity="1" filter="url(#filter-9)" xlink:href="#path-7"></use>
                        </g>
                        <g id="形状结合" fill-rule="nonzero">
                            <use fill="black" fill-opacity="1" filter="url(#filter-12)" xlink:href="#path-11"></use>
                            <use fill="url(#linearGradient-10)" xlink:href="#path-11"></use>
                            <use fill="black" fill-opacity="1" filter="url(#filter-13)" xlink:href="#path-11"></use>
                        </g>
                    </g>
                </g>
            </g>
        </g>
    </g>
</svg>