<?xml version="1.0" encoding="UTF-8"?>
<svg width="28px" height="28px" viewBox="0 0 28 28" version="1.1" xmlns="http://www.w3.org/2000/svg" xmlns:xlink="http://www.w3.org/1999/xlink">
    <title>错误</title>
    <g id="页面-1" stroke="none" stroke-width="1" fill="none" fill-rule="evenodd">
        <g id="答题页面-题4-判断题（答错）" transform="translate(-110.000000, -220.000000)">
            <g id="错误" transform="translate(110.000000, 220.000000)">
                <rect id="矩形" x="0" y="0" width="28" height="28"></rect>
                <path d="M14,4 C16.7614237,4 19.2614237,5.11928813 21.0710678,6.92893219 C22.8807119,8.73857625 24,11.2385763 24,14 C24,16.7614237 22.8807119,19.2614237 21.0710678,21.0710678 C19.2614237,22.8807119 16.7614237,24 14,24 C11.2385763,24 8.73857625,22.8807119 6.92893219,21.0710678 C5.11928813,19.2614237 4,16.7614237 4,14 C4,11.2385763 5.11928813,8.73857625 6.92893219,6.92893219 C8.73857625,5.11928813 11.2385763,4 14,4 L14,4 Z" id="矩形" stroke="#FF6674" stroke-width="4" fill="#FF6674" transform="translate(14.000000, 14.000000) scale(-1, -1) translate(-14.000000, -14.000000) "></path>
                <path d="M13.9997841,13.2842547 L10.0639029,9.34836872 C9.86534839,9.15659817 9.54973611,9.15934075 9.35454423,9.35453286 C9.15935236,9.54972497 9.15660977,9.86533763 9.3483801,10.0638923 L13.2837553,13.9997783 L9.3483801,17.9356642 C9.22047387,18.0634802 9.17047258,18.2498243 9.21721122,18.4245024 C9.26394987,18.5991806 9.40032773,18.7356551 9.57497261,18.7825173 C9.74961748,18.8293795 9.93599664,18.7795098 10.0639029,18.6516939 L13.9997841,14.7153019 L17.9356653,18.6516939 C18.0635715,18.7796002 18.2499989,18.8295534 18.424722,18.7827364 C18.5994452,18.7359194 18.7359195,18.5994449 18.7827364,18.4247216 C18.8295533,18.2499982 18.7796003,18.0635706 18.651694,17.9356642 L14.7153068,13.9997783 L18.651694,10.0638923 C18.8492802,9.86616621 18.8491669,9.54570211 18.651441,9.34811572 C18.4537151,9.15052933 18.1332514,9.15064261 17.9356653,9.34836872 L13.9997841,13.2837486 L13.9997841,13.2842547 Z" id="路径" stroke="#FFFFFF" stroke-width="1.37142857" fill="#FFFFFF" fill-rule="nonzero"></path>
            </g>
        </g>
    </g>
</svg>