<?xml version="1.0" encoding="UTF-8"?>
<svg width="36px" height="36px" viewBox="0 0 36 36" version="1.1" xmlns="http://www.w3.org/2000/svg" xmlns:xlink="http://www.w3.org/1999/xlink">
    <title>返回</title>
    <g id="页面-1" stroke="none" stroke-width="1" fill="none" fill-rule="evenodd">
        <g id="答题页面-题1-单选题（选项为文本）" transform="translate(-20.000000, -12.000000)">
            <g id="返回" transform="translate(20.000000, 12.000000)">
                <circle id="椭圆形" fill="#11ADFF" cx="18" cy="18" r="18"></circle>
                <path d="M16.0177239,18.5 L22.6339136,12.072668 C22.9496442,11.7659498 23.0729511,11.3188984 22.9573856,10.8999137 C22.8418202,10.4809289 22.5049397,10.1536646 22.0736437,10.0413979 C21.6423477,9.92913132 21.1821603,10.0489184 20.8664298,10.3556365 L13.3664981,17.6414843 C13.1318548,17.8690425 13,18.1779102 13,18.5 C13,18.8220899 13.1318548,19.1309575 13.3664981,19.3585157 L20.8664298,26.6443635 C21.1821603,26.9510816 21.6423477,27.0708687 22.0736437,26.9586021 C22.5049397,26.8463354 22.8418202,26.5190711 22.9573856,26.1000863 C23.072951,25.6811016 22.9496442,25.2340502 22.6339136,24.9273321 L16.0177239,18.5 Z" id="路径" stroke="#FFFFFF" fill="#FFFFFF" fill-rule="nonzero"></path>
            </g>
        </g>
    </g>
</svg>